<?xml version="1.0" encoding="UTF-8"?>
<svg xmlns="http://www.w3.org/2000/svg" xmlns:xlink="http://www.w3.org/1999/xlink" viewBox="0 0 2300 2320" fill="white">
<path d="M 1328.949219 239.609375 C 1328.761719 239.609375 1328.570312 239.71875 1328.460938 239.890625 L 1225.988281 402.171875 L 1218.320312 414.308594 L 1204 413.628906 C 1185.890625 412.769531 1168.339844 411.941406 1149.648438 411.941406 C 1145.300781 411.941406 1140.839844 411.988281 1136.328125 412.078125 C 1136.328125 412.078125 1136.328125 412.078125 1136.308594 412.078125 L 1136.300781 412.078125 C 1112.351562 412.628906 1085.75 414.730469 1058.308594 416.921875 L 1042.480469 418.179688 L 1034.808594 404.28125 L 946.980469 245.429688 C 946.902344 245.269531 946.761719 245.179688 946.589844 245.148438 L 946.589844 245.128906 C 946.542969 245.128906 946.511719 245.128906 946.464844 245.128906 C 946.417969 245.128906 946.371094 245.128906 946.324219 245.148438 C 922.042969 251.191406 898.390625 257.21875 876.601562 263.480469 C 849.457031 271.28125 825.398438 279.359375 796.546875 291.878906 C 771.515625 302.738281 742.808594 316.96875 713.003906 331.949219 C 712.769531 332.070312 712.644531 332.339844 712.707031 332.609375 L 729.503906 528.308594 L 730.660156 541.871094 L 719.765625 550.101562 C 699.167969 565.640625 679.285156 580.691406 662.472656 594.859375 C 645.769531 608.941406 631.964844 622.308594 617.546875 636.289062 L 607.027344 646.480469 L 593.050781 642.101562 L 413.863281 585.980469 L 413.75 585.960938 L 413.734375 585.960938 C 413.722656 585.941406 413.703125 585.941406 413.671875 585.941406 C 413.5 585.941406 413.328125 586.03125 413.21875 586.179688 C 395.734375 608.570312 378.5625 631.519531 360.464844 661.011719 C 338.472656 696.859375 314.945312 742.671875 300.636719 773.101562 C 291.371094 792.828125 286.125 805.769531 282.230469 816.511719 C 282.164062 816.679688 282.179688 816.890625 282.289062 817.039062 C 282.339844 817.109375 282.417969 817.171875 282.492188 817.210938 L 282.476562 817.210938 L 424.519531 948.429688 L 435.195312 958.28125 L 431.707031 972.480469 C 427.636719 989.050781 423.769531 1004.859375 420.308594 1025.210938 C 416.820312 1045.871094 413.734375 1071.378906 410.542969 1097.671875 L 408.726562 1112.738281 L 394.449219 1117.890625 L 221.195312 1180.320312 C 220.925781 1180.410156 220.773438 1180.691406 220.832031 1180.988281 C 221.632812 1206.621094 222.976562 1232.898438 227.109375 1265.378906 C 232.292969 1306.015625 241.886719 1356.441406 250.777344 1392.183594 C 257.308594 1418.46875 263.441406 1436.75 269.609375 1453.367188 C 269.703125 1453.59375 269.925781 1453.742188 270.160156 1453.742188 C 270.175781 1453.742188 270.1875 1453.742188 270.207031 1453.742188 L 270.191406 1453.742188 L 455.125 1449.9375 L 470.808594 1449.613281 L 477.726562 1463.699219 C 488.355469 1485.347656 498.5625 1506.101562 508.941406 1524.261719 C 519.242188 1542.292969 529.855469 1557.996094 541.03125 1574.503906 L 549.941406 1587.671875 L 541.613281 1601.207031 L 445.199219 1758.007812 C 445.074219 1758.191406 445.089844 1758.429688 445.199219 1758.621094 C 445.246094 1758.6875 445.292969 1758.742188 445.355469 1758.785156 C 463.3125 1778.957031 481.1875 1798.703125 500.066406 1817.828125 C 523.234375 1841.289062 547.792969 1863.691406 576.144531 1885.269531 C 600.203125 1903.582031 627.191406 1921.453125 655.210938 1939.640625 C 655.304688 1939.703125 655.414062 1939.730469 655.523438 1939.730469 C 655.617188 1939.730469 655.710938 1939.707031 655.804688 1939.664062 C 655.835938 1939.640625 655.867188 1939.617188 655.898438 1939.589844 L 794.484375 1820.035156 L 806.644531 1809.535156 L 821.171875 1816.453125 C 843.964844 1827.320312 865.675781 1837.652344 887.183594 1845.835938 C 908.613281 1853.992188 930.167969 1860.125 952.898438 1866.582031 L 968.128906 1870.90625 L 970.507812 1886.570312 L 998.328125 2069.894531 C 998.355469 2070.054688 998.449219 2070.195312 998.578125 2070.289062 C 998.65625 2070.347656 998.765625 2070.378906 998.859375 2070.386719 C 1022.140625 2074.53125 1045.878906 2078.273438 1074.710938 2080.597656 C 1097.410156 2082.417969 1123.429688 2083.375 1149.101562 2083.375 C 1163.691406 2083.375 1178.050781 2083.066406 1191.589844 2082.449219 C 1191.601562 2082.449219 1191.621094 2082.449219 1191.621094 2082.449219 C 1191.628906 2082.449219 1191.628906 2082.449219 1191.648438 2082.449219 L 1195 2082.316406 C 1195.058594 2082.316406 1195.128906 2082.304688 1195.191406 2082.28125 C 1224.851562 2080.785156 1250.480469 2077.785156 1275.839844 2074.394531 C 1275.898438 2074.386719 1275.960938 2074.367188 1276.019531 2074.335938 L 1276.019531 2074.328125 C 1276.191406 2074.242188 1276.308594 2074.078125 1276.320312 2073.886719 L 1298.710938 1896.003906 L 1300.820312 1879.214844 L 1317.238281 1875.171875 L 1317.988281 1874.984375 L 1318.011719 1874.984375 L 1318.128906 1874.953125 C 1339.109375 1869.785156 1359.160156 1864.808594 1381.25 1857.417969 C 1381.25 1857.410156 1381.269531 1857.410156 1381.269531 1857.402344 C 1403.839844 1849.847656 1428.789062 1839.671875 1454.679688 1829.105469 L 1467.640625 1823.820312 L 1478.820312 1832.246094 L 1631.429688 1947.371094 C 1631.539062 1947.449219 1631.660156 1947.484375 1631.789062 1947.484375 C 1631.878906 1947.484375 1631.960938 1947.46875 1632.039062 1947.421875 C 1632.070312 1947.417969 1632.089844 1947.40625 1632.101562 1947.394531 C 1639.289062 1943.085938 1646.589844 1938.628906 1654.089844 1933.875 L 1654.128906 1933.847656 C 1654.269531 1933.746094 1654.359375 1933.59375 1654.378906 1933.414062 C 1654.378906 1933.246094 1654.308594 1933.078125 1654.191406 1932.957031 L 1652.890625 1931.730469 C 1651.699219 1930.601562 1650.539062 1929.421875 1649.480469 1928.21875 C 1649.460938 1928.195312 1649.429688 1928.167969 1649.410156 1928.144531 L 1338.320312 1618.355469 L 1338.261719 1618.296875 C 1338.148438 1618.226562 1338.03125 1618.1875 1337.921875 1618.1875 C 1337.839844 1618.1875 1337.761719 1618.199219 1337.679688 1618.230469 C 1276.710938 1644.410156 1209.53125 1658.90625 1138.96875 1658.90625 C 860.542969 1658.90625 634.8125 1433.195312 634.8125 1154.761719 C 634.8125 876.320312 860.542969 650.609375 1138.96875 650.609375 C 1417.410156 650.609375 1643.121094 876.320312 1643.121094 1154.761719 C 1643.121094 1228.589844 1627.25 1298.726562 1598.730469 1361.921875 C 1598.648438 1362.097656 1598.660156 1362.304688 1598.769531 1362.472656 C 1598.808594 1362.519531 1598.839844 1362.5625 1598.871094 1362.601562 L 1777.851562 1542.617188 C 1777.960938 1542.726562 1778.121094 1542.789062 1778.261719 1542.789062 C 1778.339844 1542.789062 1778.410156 1542.769531 1778.488281 1542.742188 C 1778.609375 1542.695312 1778.679688 1542.617188 1778.761719 1542.511719 C 1784.128906 1534.015625 1789.070312 1526.019531 1793.390625 1518.78125 C 1805.171875 1499.101562 1812.320312 1485 1819.761719 1470.328125 L 1826.019531 1457.945312 L 1839.859375 1456.902344 L 2033.320312 1442.304688 L 2033.398438 1442.292969 L 2033.410156 1442.292969 C 2033.601562 1442.25 2033.761719 1442.105469 2033.839844 1441.914062 C 2042.871094 1416.011719 2051.390625 1389.933594 2058.449219 1358.34375 C 2066.988281 1320.132812 2073.519531 1273.460938 2076.808594 1239.300781 C 2079.171875 1214.808594 2079.839844 1196.988281 2080.058594 1180.730469 C 2080.089844 1180.460938 2079.941406 1180.210938 2079.691406 1180.128906 L 1905.101562 1118.359375 L 1890.558594 1113.210938 L 1888.851562 1097.890625 C 1887.460938 1085.539062 1886.078125 1073.109375 1884.71875 1060.140625 L 1884.71875 1060.128906 L 1884.53125 1058.339844 L 1884.339844 1056.558594 L 1884.339844 1056.539062 C 1883.140625 1045.011719 1881.839844 1033.28125 1878.640625 1017.03125 C 1875.050781 998.671875 1869.039062 974.488281 1862.808594 949.410156 L 1859.089844 934.511719 L 1870.839844 924.628906 L 2011.230469 806.398438 C 2011.28125 806.351562 2011.339844 806.289062 2011.378906 806.230469 C 2011.449219 806.070312 2011.449219 805.890625 2011.390625 805.730469 C 1999.601562 776.769531 1987.609375 748.441406 1972.808594 719.890625 C 1955.128906 685.78125 1933.21875 650.941406 1914.351562 623.550781 C 1900.058594 602.789062 1887.621094 586.429688 1875.421875 570.898438 C 1875.339844 570.808594 1875.25 570.730469 1875.128906 570.699219 C 1875.058594 570.679688 1875.019531 570.671875 1874.949219 570.671875 C 1874.890625 570.671875 1874.808594 570.679688 1874.769531 570.710938 L 1701.808594 635.351562 L 1687.691406 640.640625 L 1676.558594 630.449219 L 1675.589844 629.558594 C 1652.75 608.660156 1630.679688 588.5 1612.191406 573.359375 C 1612.191406 573.339844 1612.171875 573.339844 1612.160156 573.328125 C 1593.699219 558.230469 1578.710938 548.078125 1562.941406 537.421875 L 1550.949219 529.308594 L 1552.199219 514.878906 L 1568.921875 323.25 L 1568.941406 323.25 C 1568.941406 323.179688 1568.941406 323.121094 1568.921875 323.039062 C 1568.878906 322.890625 1568.769531 322.75 1568.628906 322.679688 C 1544.980469 310.359375 1520.96875 298.449219 1491.03125 286.878906 C 1491.011719 286.878906 1491 286.878906 1491 286.871094 C 1454.429688 272.761719 1408.628906 259.03125 1377.089844 250.679688 C 1355.949219 245.070312 1341.539062 241.96875 1329.109375 239.640625 C 1329.058594 239.621094 1329.011719 239.609375 1328.949219 239.609375 Z M 1328.949219 239.609375 "/>
<path d="m 1133.3711,816.32031 -0.9297,0.0508 -24.1211,1.21875 -0.9219,0.0508 -0.9101,0.12891 -23.9571,2.94922 -0.9296,0.13281 -0.9102,0.16797 -23.6602,4.71094 -0.9296,0.16797 -0.8907,0.25 -23.2812,6.41015 c -13.5508,3.74219 -21.5,17.75 -17.7813,31.30079 0.025,0.0922 0.052,0.18366 0.078,0.27539 1.0808,4.43021 3.3629,8.62577 6.8437,12.06445 l 196.0567,193.34174 -2.9082,11.793 -3.5665,11.5312 -4.4941,12.0879 -4.8457,11.0371 -5.6816,11.1934 -6.1582,10.584 -6.9122,10.4765 -7.4335,9.9454 -8.877,10.5332 -9.6406,10.0566 -10.0547,9.2402 -10.8906,8.793 -11.3496,8.0254 -11.9395,7.3574 -11.8496,6.3008 -12.6426,5.7344 -13.0976,4.9629 -13.1602,4.0527 -13.4258,3.2148 -1.625,0.2832 -187.96092,-184.5839 c -8.36558,-8.2351 -20.99298,-9.4806 -30.67187,-3.8243 -5.5892,3.165 -9.9903,8.4353 -11.90235,15.0938 l -6.39062,22.1484 -0.2461,0.8633 -0.1914,0.8984 -4.78906,22.5313 -0.1875,0.8789 -0.125,0.9102 -3.16016,22.8203 -0.12891,0.8906 -0.0625,0.918 -1.53125,22.9804 -0.0625,0.9024 v 0.9062 l 0.0937,23.043 v 0.9101 l 0.0781,0.9102 1.73828,22.957 0.0625,0.9102 0.14062,0.8906 3.36328,22.8008 0.125,0.8906 0.20704,0.8906 4.97656,22.4883 0.20312,0.8789 0.26563,0.8789 6.55859,22.0821 0.26563,0.8672 0.3125,0.8515 8.125,21.5586 0.3125,0.8477 0.39062,0.8242 9.62891,20.9219 0.39062,0.8281 0.42188,0.7969 11.09766,20.1914 0.45703,0.7929 0.48437,0.7579 12.50781,19.3476 0.5,0.7578 0.53125,0.7266 13.8711,18.4141 0.53125,0.7187 0.59375,0.6875 15.14062,17.375 0.60938,0.6992 0.65625,0.6524 17.17187,17.0429 0.6875,0.6719 0.72266,0.6172 18.39062,15.7148 0.73828,0.6172 0.76563,0.5625 19.51953,14.2891 0.78516,0.5664 0.79687,0.5078 20.53907,12.7891 0.8125,0.5039 0.84374,0.4375 21.4336,11.2265 0.84375,0.4414 0.875,0.379 22.23041,9.5859 0.8594,0.3828 0.9102,0.3125 22.8711,7.8984 0.9101,0.3125 0.8985,0.2422 23.4101,6.1719 0.918,0.2461 0.9414,0.168 23.8008,4.4023 0.9297,0.1797 0.9414,0.1016 24.0586,2.6093 0.9414,0.1055 0.957,0.039 24.1797,0.8086 0.9531,0.027 0.957,-0.035 24.1719,-1 0.9609,-0.039 0.9493,-0.1094 24.0312,-2.8008 0.9375,-0.1133 0.9414,-0.1796 23.7578,-4.5899 0.9414,-0.1836 0.9219,-0.25 23.3399,-6.3515 0.9296,-0.25 0.8907,-0.3164 7.6289,-2.7032 409.3926,407.6895 c 0.6406,0.7634 1.3326,1.4974 2.0761,2.1972 l 7.5,7.0704 0.7305,0.7031 0.8086,0.6367 8.0312,6.4375 0.8204,0.6406 0.8398,0.5742 8.5391,5.7657 0.8515,0.582 0.8985,0.5 8.9726,5.0625 0.8867,0.5039 0.9414,0.4336 9.3399,4.3242 0.9492,0.4258 0.9492,0.3555 9.6719,3.5508 0.9609,0.3554 1,0.2774 9.918,2.7617 0.9922,0.2773 1,0.1953 10.1289,1.9571 1,0.1953 1.0195,0.1133 10.2422,1.1328 1.0078,0.1172 1.0391,0.031 10.3008,0.3047 1.0195,0.031 1.0313,-0.051 10.2812,-0.5274 1.0391,-0.051 1.0078,-0.1367 10.2109,-1.3437 1.0196,-0.1367 1,-0.2188 10.082,-2.1641 1,-0.2187 0.9687,-0.2969 9.8789,-2.9687 0.9727,-0.3008 0.9687,-0.375 9.5821,-3.7578 0.9687,-0.375 0.918,-0.4531 9.2617,-4.5079 0.918,-0.4531 0.8828,-0.5273 8.8672,-5.25 0.8828,-0.5235 0.8477,-0.5937 8.4023,-5.9453 0.8281,-0.5899 0.8008,-0.6601 7.8984,-6.6055 0.8008,-0.6602 0.7227,-0.7148 7.3593,-7.2227 0.7383,-0.7187 0.6719,-0.7734 6.7305,-7.7891 0.6679,-0.7774 0.6094,-0.8281 6.0899,-8.3125 0.6328,-0.8242 0.5273,-0.8789 5.4024,-8.7734 0.5468,-0.8711 0.4727,-0.9219 4.6797,-9.1758 0.4687,-0.9141 0.3907,-0.9492 3.9101,-9.5351 0.3985,-0.9453 0.3203,-0.9805 3.1328,-9.8125 0.3281,-0.9766 0.2383,-1.0039 2.3515,-10.0351 0.2188,-1.0039 0.1523,-1.0157 1.5391,-10.1914 0.1484,-1.0156 0.07,-1.0273 0.7031,-10.2852 0.078,-1.0234 -0.02,-1.0274 -0.1211,-10.3086 -0.02,-1.0234 -0.09,-1.0234 -0.9609,-10.2657 -0.1094,-1.0234 -0.168,-1.0078 -1.7812,-10.1563 -0.1719,-1.0078 -0.2695,-0.9961 -2.5899,-9.9765 -0.2578,-0.9961 -0.3516,-0.9727 -3.371,-9.7265 -0.3477,-0.9727 -0.4102,-0.9414 -4.1601,-9.4297 -0.4219,-0.9414 -0.4883,-0.8984 -4.9101,-9.0704 -0.4922,-0.8984 -0.5469,-0.8633 -5.6328,-8.6367 -0.5469,-0.8555 -0.6406,-0.8242 -6.3008,-8.1523 -0.6406,-0.8164 -0.6914,-0.7539 -6.9297,-7.6211 c -0.58,-0.6386 -1.1852,-1.241 -1.8125,-1.8067 l -410.127,-412.5019 3.2012,-9.8438 0.3008,-0.9179 0.2187,-0.9375 5.9493,-24.4454 0.2226,-0.9296 0.1485,-0.961 4.0703,-24.8281 0.1601,-0.9492 0.078,-0.961 2.1914,-25.0625 0.078,-0.9492 v -0.9687 l 0.2812,-25.1602 0.02,-0.9492 -0.07,-0.9805 -1.6172,-25.1015 -0.082,-0.961 -0.1289,-0.9492 -3.5195,-24.9101 -0.1406,-0.9493 -0.1993,-0.9414 -5.4023,-24.5781 -0.2187,-0.9414 -0.2696,-0.918 -7.25,-24.0898 -0.2812,-0.9297 -0.3399,-0.9023 -9.0703,-23.4688 -0.3203,-0.9102 -0.4297,-0.8593 -10.8008,-22.711 -0.4101,-0.8789 -0.4766,-0.8398 -12.4922,-21.82029 -0.4883,-0.85156 -0.5312,-0.80079 -14.1094,-20.80859 -0.539,-0.82031 -0.6016,-0.75 -15.6484,-19.6875 -0.6016,-0.77344 -0.6602,-0.70703 L 1392,921.82812 1391.3594,921.14062 1390.6719,920.5 1373,904.05078 l -0.6797,-0.6289 -0.7109,-0.58204 -18.8399,-15.12109 -0.7109,-0.59766 -0.7695,-0.51171 -19.8672,-13.71876 -0.7617,-0.53124 -0.8008,-0.46876 -20.8086,-12.21874 -0.8125,-0.47266 -0.8281,-0.42969 -21.6485,-10.66797 -0.832,-0.42187 -0.8399,-0.35157 -22.3789,-9.07812 -0.8515,-0.35938 -0.8985,-0.28124 -22.9609,-7.42969 -0.8789,-0.28907 -0.9102,-0.21093 -23.4414,-5.75 -0.8984,-0.23828 -0.9219,-0.13282 -23.789,-4.03906 -0.9102,-0.16015 -0.9297,-0.0781 -24.0391,-2.28125 -0.9218,-0.10156 -0.9297,-0.008 -24.1406,-0.53124 z m 0.6601,50.96094 22.3692,0.48828 22.1308,2.10742 21.9727,3.71094 21.5781,5.2832 21.3379,6.90821 20.7129,8.41601 19.916,9.83985 19.2735,11.33203 18.3281,12.64258 17.2988,13.90625 16.3653,15.23437 15.7617,17.02344 14.3535,18.07812 13.0449,19.23825 11.6406,20.3379 10.0098,21.0664 8.2715,21.461 6.7539,22.5078 4.9355,22.459 3.2813,23.2285 1.4746,22.8437 -0.2539,23.4043 -2.0039,23.0313 -3.7578,22.9414 -5.5098,22.6347 -7.457,22.9258 c -1.6575,5.1082 -1.6132,10.3596 -0.1797,15.1426 1.0542,4.3793 3.2846,8.5346 6.6914,11.9629 l 420.9492,423.3828 c 0.1814,0.1825 0.3653,0.3612 0.5508,0.5371 l 5.4551,5.9844 5.1445,6.6504 4.5195,6.959 3.9121,7.2168 3.3145,7.5136 2.7539,7.9258 2.0156,7.7793 1.4551,8.2617 0.7617,8.1368 0.096,8.416 -0.5527,8.0332 -1.2402,8.2539 -1.8575,7.9316 -2.5136,7.8594 -3.2266,7.8223 -3.709,7.2636 -4.2519,6.9043 -5,6.8028 -5.3848,6.2109 -5.9355,5.8223 -6.2715,5.2324 -6.6367,4.6875 -7.1426,4.2363 -7.4981,3.6563 -7.5918,2.9668 -7.8828,2.3828 -8.1445,1.75 -8.127,1.0742 -8.2148,0.416 -8.3125,-0.248 -8.1133,-0.9004 -8.0625,-1.5547 -8.0469,-2.2422 -7.6601,-2.8145 -7.6407,-3.5292 -7.1425,-4.0391 -6.7442,-4.5606 -6.4863,-5.1875 -5.5586,-5.2421 c -0.4067,-0.4683 -0.8327,-0.9247 -1.2793,-1.3692 l -420.2715,-418.5215 c -0.034,-0.04 -0.077,-0.071 -0.1113,-0.1113 -6.6577,-7.6568 -17.5622,-10.8898 -27.707,-7.3008 l -21.9082,7.7656 -21.461,5.8418 -22.0175,4.2539 -21.9805,2.5606 -22.3047,0.9277 -22.3691,-0.748 -22.1075,-2.4063 -21.9453,-4.0586 -21.5703,-5.6914 -20.9394,-7.2324 -20.6075,-8.8887 -19.6992,-10.3086 -18.92382,-11.791 -17.94531,-13.1269 -17.07422,-14.5664 -15.80468,-15.6856 -13.98829,-16.0722 -12.62304,-16.7715 -11.53321,-17.8145 -10.30664,-18.7519 -8.84375,-19.1895 -7.5,-19.9101 -6.06054,-20.3438 -4.58008,-20.6894 -3.10156,-20.9922 -1.61328,-21.3379 -0.0859,-21.1582 1.42578,-21.1426 2.9375,-21.1152 163.75974,160.8164 c 5.6393,6.9138 14.7427,10.6678 24.1699,9.0371 l 15.2305,-2.6407 0.8125,-0.1328 0.7773,-0.1914 15.0508,-3.6015 0.7812,-0.1875 0.7774,-0.2383 14.7812,-4.5547 0.7813,-0.2344 0.75,-0.289 14.4805,-5.4766 0.75,-0.2891 0.7382,-0.332 14.1016,-6.3906 0.7383,-0.3281 0.7187,-0.3907 13.6524,-7.2656 0.7187,-0.375 0.6914,-0.4219 13.1602,-8.1289 0.6875,-0.4179 0.6719,-0.4688 12.6211,-8.9414 0.6679,-0.4688 0.6289,-0.5117 12.043,-9.7187 0.6172,-0.5196 0.6016,-0.5312 11.3984,-10.4805 0.5898,-0.539 0.5625,-0.5821 10.711,-11.1796 0.5586,-0.5782 0.5195,-0.6211 9.9883,-11.8281 0.4805,-0.5898 0.4609,-0.6133 8.2812,-11.0977 0.418,-0.582 0.4102,-0.6094 7.6211,-11.539 0.4101,-0.6016 0.3594,-0.6289 6.9609,-11.9609 0.3594,-0.629 0.3281,-0.6406 6.2617,-12.3281 0.3321,-0.6406 0.2969,-0.6797 5.5624,-12.6602 0.2774,-0.6601 0.2617,-0.6914 4.8281,-12.961 0.25,-0.6875 0.2227,-0.6914 4.0781,-13.2109 0.2227,-0.6797 0.1679,-0.707 3.3204,-13.4414 0.1914,-0.711 0.1172,-0.7109 2.5703,-13.5977 c 1.3518,-7.1977 -0.4663,-14.2507 -4.461,-19.7383 -0.4328,-0.6076 -0.9156,-1.1856 -1.4082,-1.7617 -0.1011,-0.1159 -0.2014,-0.2315 -0.3047,-0.3457 -0.3812,-0.43 -0.7194,-0.8854 -1.1347,-1.2949 l -173.8047,-171.39453 1.2148,-0.24219 21.9395,-2.71094 z"/>
</svg>