<?xml version="1.0" encoding="UTF-8"?>
<svg width="737.8" height="371" version="1.1" xmlns="http://www.w3.org/2000/svg" xmlns:cc="http://creativecommons.org/ns#" xmlns:dc="http://purl.org/dc/elements/1.1/" xmlns:rdf="http://www.w3.org/1999/02/22-rdf-syntax-ns#" xmlns:xlink="http://www.w3.org/1999/xlink">
<g transform="translate(-727.5 -270.6)" fill="white">
<path d="M 1324.3984 270.5668 C 1324.2354 270.5668 1327.3702 272.35636 1331.3652 274.54336 C 1373.0852 297.37336 1403.4755 324.66297 1421.6855 355.64297 C 1449.8055 403.44297 1444.8943 457.34219 1408.1543 503.84219 C 1384.2343 534.07219 1348.3151 560.79227 1303.4551 581.67227 C 1253.5551 604.90227 1195.1147 620.26219 1132.5547 626.59219 C 1066.2547 633.30219 998.61547 629.71305 936.85547 616.22305 C 897.91547 607.72305 859.3443 594.3325 828.6543 578.6625 C 826.1543 577.3863 824.10938 576.42286 824.10938 576.51016 C 824.10938 576.77016 836.99639 583.93914 842.90039 586.96914 C 905.60039 619.11914 986.23 638.29661 1071 641.19961 L 1070.9941 641.20352 C 1096.4741 642.07652 1125.9144 641.30681 1150.9844 639.10781 C 1243.3844 631.00781 1326.6848 603.7368 1384.8848 562.5668 C 1420.7148 537.2168 1445.2155 507.93758 1457.1855 476.11758 C 1466.0865 452.46758 1467.3302 425.79648 1460.6582 401.74648 C 1453.4382 375.74648 1438.6892 352.32633 1415.1992 329.58633 C 1396.4992 311.48633 1375.0691 296.28625 1348.1191 282.00625 C 1342.5991 279.07625 1324.9452 270.5668 1324.3984 270.5668 z M 1164.1836 520.89297 L 1164.1836 527.96523 C 1163.4046 527.58043 1162.7214 527.29883 1162.1348 527.11563 C 1161.5478 526.92873 1160.7989 526.84023 1159.8848 526.84023 C 1158.8778 526.84023 1157.9206 527.04944 1157.0176 527.46914 C 1156.1136 527.88814 1155.3468 528.45822 1154.7129 529.17813 C 1154.0172 529.96713 1153.471 530.89633 1153.0762 531.96133 C 1152.9468 532.31139 1152.839 532.68093 1152.752 533.07266 C 1152.5145 531.30781 1151.8746 529.89703 1150.832 528.83828 C 1149.482 527.46628 1147.4661 526.78164 1144.7871 526.78164 C 1141.8371 526.78164 1139.5433 527.58942 1137.9023 529.20742 C 1136.2621 530.82542 1135.4414 532.99052 1135.4414 535.70352 C 1135.4414 538.47552 1136.3201 540.61272 1138.0801 542.11172 C 1139.8401 543.61092 1142.3708 544.35977 1145.6738 544.35977 C 1146.5778 544.35977 1147.3431 544.32011 1147.9707 544.23281 C 1148.5987 544.14921 1149.2093 544.03346 1149.8008 543.88516 C 1150.4442 543.73676 1150.9515 543.59291 1151.3203 543.44961 C 1151.689 543.30621 1152.0958 543.15091 1152.543 542.98281 L 1152.543 538.70742 L 1151.9668 538.70742 C 1151.7288 538.87442 1151.4194 539.06689 1151.041 539.28359 C 1150.6624 539.50019 1150.25 539.70272 1149.8027 539.89102 C 1149.2937 540.10892 1148.7319 540.28321 1148.1191 540.41641 C 1147.5071 540.55331 1146.8859 540.61563 1146.252 540.61563 C 1145.514 540.61563 1144.8337 540.54961 1144.2109 540.41641 C 1143.5869 540.28321 1143.0412 540.06165 1142.5742 539.75625 C 1142.0962 539.45035 1141.7135 539.03998 1141.4219 538.52188 C 1141.1306 538.00387 1140.9572 537.35993 1140.9062 536.59023 L 1152.5059 536.59023 C 1152.6211 538.81757 1153.197 540.62855 1154.2305 542.02188 C 1155.3935 543.59028 1156.9708 544.37539 1158.9648 544.37539 C 1159.5566 544.37539 1160.0661 544.32665 1160.4922 544.22695 C 1160.9185 544.12725 1161.3495 543.98149 1161.7852 543.78359 C 1162.1278 543.62659 1162.5266 543.38766 1162.9785 543.07266 C 1163.4295 542.75636 1163.8319 542.46234 1164.1855 542.18594 L 1164.1855 543.91641 L 1169.6367 543.91641 L 1169.6367 520.89297 L 1164.1836 520.89297 z M 1171.7285 520.89688 L 1171.7285 524.93594 L 1177.4922 524.93594 L 1177.4922 520.89688 L 1171.7285 520.89688 z M 1045.1309 520.90664 L 1045.1309 524.9457 L 1050.8945 524.9457 L 1050.8945 520.90664 L 1045.1309 520.90664 z M 936.32617 520.91641 L 936.32617 524.95547 L 942.08984 524.95547 L 942.08984 520.91641 L 936.32617 520.91641 z M 990.87305 520.91641 L 990.87305 543.93594 L 996.32617 543.93594 L 996.32617 520.91641 L 990.87305 520.91641 z M 927.03516 521.5082 C 924.28316 521.5082 921.98644 522.14722 920.14844 523.42422 C 918.31064 524.70222 917.39258 526.37198 917.39258 528.43398 C 917.39258 529.96298 917.78215 531.23634 918.56055 532.25234 C 919.33955 533.26834 920.62683 534.07653 922.42383 534.67813 C 923.20283 534.93462 924.04155 535.15227 924.93945 535.33047 C 925.83745 535.50737 926.6811 535.69402 927.4707 535.89102 C 928.1037 536.04922 928.64857 536.30197 929.10547 536.64688 C 929.56267 536.99288 929.79102 537.43958 929.79102 537.99258 C 929.79102 538.48618 929.65119 538.88278 929.37109 539.18398 C 929.09039 539.48418 928.7468 539.71901 928.3418 539.88711 C 928.0097 540.03401 927.57089 540.13643 927.02539 540.21133 C 926.48029 540.27433 926.04344 540.31094 925.71094 540.31094 C 924.39294 540.31094 923.03091 540.06023 921.62891 539.55703 C 920.22691 539.05403 918.94425 538.33348 917.78125 537.39688 L 917.25195 537.39688 L 917.25195 542.63516 C 918.40495 543.11836 919.65305 543.52295 920.99805 543.84805 C 922.34305 544.17325 923.90369 544.33633 925.67969 544.33633 L 925.67969 544.33828 C 928.76369 544.33828 931.21339 543.67223 933.02539 542.34023 C 934.83799 541.00923 935.74219 539.24703 935.74219 537.05703 C 935.74219 535.52803 935.35101 534.29843 934.56641 533.36563 C 933.78241 532.43363 932.58461 531.69206 930.97461 531.13906 C 930.15461 530.86236 929.38441 530.64472 928.66211 530.48672 C 927.94011 530.32872 927.19051 530.16654 926.41211 529.99844 C 925.20711 529.73194 924.39376 529.43411 923.97266 529.10391 C 923.55146 528.77391 923.3418 528.32566 923.3418 527.76406 C 923.3418 527.37886 923.47288 527.03109 923.73828 526.72109 C 924.00358 526.41089 924.31794 526.17597 924.68164 526.01797 C 925.12794 525.81957 925.55438 525.69248 925.95898 525.61758 C 926.36348 525.55458 926.82068 525.51797 927.33008 525.51797 C 928.63808 525.51797 929.9143 525.75928 931.1543 526.24258 C 932.3963 526.72658 933.44679 527.31992 934.30859 528.01992 L 934.82422 528.01992 L 934.82422 522.98867 C 933.74422 522.53507 932.5203 522.17489 931.1543 521.90859 C 929.7893 521.64179 928.41616 521.50829 927.03516 521.5082 z M 1204.5469 521.88516 L 1204.5469 543.91641 L 1220.0273 543.91641 L 1220.0293 541.95938 C 1220.2396 542.2878 1220.4913 542.59577 1220.7871 542.88125 C 1221.8111 543.86805 1223.0975 544.36172 1224.6445 544.36172 C 1225.4765 544.36172 1226.1221 544.30653 1226.584 544.18203 C 1227.0472 544.06393 1227.5216 543.89135 1228.0098 543.66445 C 1228.5082 543.42785 1228.9045 543.19197 1229.2012 542.95547 C 1229.4976 542.71757 1229.8332 542.45089 1230.207 542.15469 L 1230.2051 543.91445 L 1235.625 543.91445 L 1235.625 532.61367 C 1235.625 530.65967 1234.9365 529.20775 1233.5605 528.25625 C 1232.1845 527.30405 1229.9905 526.82852 1226.9785 526.82852 C 1225.7535 526.82852 1224.538 526.92965 1223.334 527.13125 C 1222.13 527.33445 1221.2573 527.50834 1220.7168 527.65664 L 1220.7168 531.66641 L 1221.1836 531.66641 C 1222.0046 531.32141 1222.8472 531.03664 1223.709 530.81484 C 1224.571 530.59444 1225.3229 530.48281 1225.9668 530.48281 C 1227.3888 530.48281 1228.4568 530.6583 1229.168 531.0082 C 1229.8786 531.3582 1230.2363 531.99069 1230.2363 532.90859 L 1230.2363 532.99648 C 1228.6583 533.09468 1227.1815 533.23235 1225.8105 533.41055 C 1224.4395 533.58735 1223.2616 533.90461 1222.2754 534.35781 C 1221.2994 534.80181 1220.5526 535.4028 1220.0332 536.1625 C 1219.5137 536.9225 1219.2539 537.91973 1219.2539 539.15273 C 1219.2539 539.34503 1219.2625 539.5314 1219.2793 539.71523 L 1210.373 539.71523 L 1210.373 521.88516 L 1204.5469 521.88516 z M 1023.3613 521.90078 L 1023.3613 543.93203 L 1030.6211 543.93203 C 1032.2201 543.93203 1033.7285 543.82342 1035.1465 543.61172 C 1036.5635 543.39972 1037.8761 542.92378 1039.0801 542.18398 C 1040.5241 541.31598 1041.7169 540.07066 1042.6621 538.44766 C 1043.608 536.82466 1044.0801 534.98794 1044.0801 532.93594 L 1044.082 532.93984 C 1044.082 530.80884 1043.6408 528.9562 1042.7578 527.3832 C 1041.8748 525.8102 1040.6696 524.561 1039.1426 523.6332 C 1037.8956 522.8745 1036.5617 522.39466 1035.1387 522.19766 C 1033.7157 522.00116 1032.1886 521.90078 1030.5586 521.90078 L 1023.3613 521.90078 z M 1097.1699 522.55313 L 1097.1699 527.30313 L 1095.082 527.30313 L 1095.082 527.70938 C 1094.4776 527.48007 1093.8762 527.29998 1093.2754 527.16836 C 1092.3094 526.96266 1091.3435 526.85 1090.377 526.85 C 1089.1 526.85 1087.8724 527.01589 1086.6934 527.34609 C 1085.5144 527.67709 1084.4869 528.18604 1083.6152 528.87734 C 1082.7112 529.59734 1081.9961 530.5143 1081.4668 531.6293 C 1081.2585 532.06764 1081.0894 532.54315 1080.9629 533.05508 C 1080.7225 531.3033 1080.0839 529.90119 1079.0469 528.84805 C 1077.6969 527.47605 1075.6839 526.79141 1073.0039 526.79141 C 1070.0549 526.79141 1067.7601 527.59919 1066.1191 529.21719 C 1065.5708 529.75807 1065.1132 530.36066 1064.748 531.02383 L 1064.748 527.31484 C 1064.5724 527.28784 1064.3745 527.27436 1064.1562 527.26406 C 1063.9386 527.25586 1063.7413 527.25054 1063.5645 527.25039 C 1063.0965 527.25039 1062.6005 527.33153 1062.0762 527.49453 C 1061.5525 527.65663 1061.0941 527.85367 1060.6992 528.08047 C 1060.3354 528.27847 1059.933 528.54128 1059.4922 528.87148 C 1059.0504 529.20148 1058.704 529.475 1058.4551 529.6918 L 1058.4551 527.31094 L 1053.0039 527.31094 L 1053.0039 543.93008 L 1058.4551 543.93008 L 1058.4551 532.80117 C 1059.0471 532.58317 1059.6563 532.39472 1060.2852 532.23672 C 1060.9132 532.07512 1061.5124 532.00039 1062.084 532.00039 C 1062.5623 532.00039 1062.9996 532.01447 1063.3945 532.05117 C 1063.7453 532.07907 1064.023 532.12206 1064.2266 532.18398 C 1063.8479 533.23444 1063.6582 534.41002 1063.6582 535.71328 C 1063.6582 538.48528 1064.5369 540.62248 1066.2969 542.12148 C 1068.0569 543.62068 1070.5876 544.36953 1073.8906 544.36953 C 1074.7946 544.36953 1075.5598 544.33183 1076.1875 544.24453 C 1076.8155 544.16093 1077.4261 544.04517 1078.0176 543.89688 C 1078.6611 543.74848 1079.1684 543.60267 1079.5371 543.45938 C 1079.9057 543.31638 1080.3139 543.16263 1080.7598 542.99453 L 1080.7598 538.71719 L 1080.1836 538.71719 C 1079.9444 538.88419 1079.6362 539.07666 1079.2578 539.29336 C 1078.8792 539.50996 1078.4667 539.71248 1078.0195 539.90078 C 1077.5105 540.11868 1076.9486 540.29297 1076.3359 540.42617 C 1075.7229 540.56307 1075.1008 540.62539 1074.4668 540.62539 C 1073.7288 540.62539 1073.0485 540.55937 1072.4258 540.42617 C 1071.8028 540.29297 1071.2563 540.07337 1070.7891 539.76797 C 1070.3112 539.46107 1069.927 539.04974 1069.6367 538.53164 C 1069.3451 538.01364 1069.173 537.3696 1069.123 536.6 L 1080.7109 536.6 C 1080.793 537.6984 1081.0204 538.68225 1081.4043 539.53945 C 1081.8923 540.62945 1082.5734 541.5344 1083.4453 542.2543 C 1084.3273 542.9742 1085.3694 543.50705 1086.5684 543.85195 C 1087.7674 544.19695 1089.0883 544.36953 1090.5312 544.36953 L 1090.5371 544.36953 C 1091.2951 544.36953 1091.9032 544.3331 1092.3652 544.2582 C 1092.8282 544.1847 1093.3242 544.07804 1093.8535 543.93984 C 1094.2794 543.83154 1094.6978 543.69388 1095.1074 543.52578 C 1095.517 543.35868 1095.8783 543.21052 1096.1895 543.08242 L 1096.1895 538.64297 L 1095.4883 538.64297 C 1095.3015 538.81997 1095.0774 539.01882 1094.8184 539.24063 C 1094.558 539.46253 1094.2464 539.67856 1093.8828 539.88516 C 1093.5093 540.09306 1093.0624 540.27006 1092.543 540.41836 C 1092.024 540.56536 1091.4213 540.64112 1090.7363 540.64102 C 1089.3863 540.64102 1088.3042 540.232 1087.4883 539.4125 C 1086.6725 538.5935 1086.2656 537.35098 1086.2656 535.68398 C 1086.2656 534.12598 1086.6469 532.88423 1087.4102 531.96133 C 1088.1732 531.03813 1089.2506 530.57865 1090.6426 530.57852 C 1091.2556 530.57852 1091.8105 530.64811 1092.3086 530.79141 C 1092.8079 530.93451 1093.2535 531.11205 1093.6484 531.31875 C 1094.0217 531.51685 1094.3691 531.73264 1094.6855 531.96914 C 1095.0018 532.20584 1095.268 532.42448 1095.4863 532.62148 L 1096.1875 532.62148 L 1096.1875 530.91445 L 1097.1699 530.91445 L 1097.1699 538.68203 C 1097.1699 540.65403 1097.6765 542.07565 1098.6895 542.94375 C 1099.7015 543.81225 1101.319 544.24453 1103.541 544.24453 L 1103.5371 544.24648 C 1104.5031 544.24648 1105.3174 544.20683 1105.9824 544.11953 C 1106.6474 544.03593 1107.2757 543.92007 1107.8672 543.77188 L 1107.8672 540.11758 L 1107.4004 540.11758 C 1107.2135 540.21588 1106.8842 540.3173 1106.4121 540.4418 C 1105.9406 540.5576 1105.5592 540.62148 1105.2676 540.62148 C 1104.5622 540.62148 1104.0249 540.5184 1103.6562 540.3168 C 1103.2876 540.115 1103.0304 539.84138 1102.8848 539.49648 C 1102.7239 539.15068 1102.6458 538.76146 1102.6348 538.32656 C 1102.6218 537.89256 1102.623 537.38473 1102.623 536.80313 L 1102.623 530.91445 L 1107.873 530.91445 L 1107.873 527.30313 L 1102.623 527.30313 L 1102.623 522.55313 L 1097.1699 522.55313 z M 1029.1836 526.00234 L 1029.2969 526.00234 C 1030.5019 526.00234 1031.5375 526.02814 1032.4043 526.06484 C 1033.2713 526.10474 1034.099 526.33178 1034.8887 526.74648 C 1035.9787 527.32848 1036.7861 528.13541 1037.3105 529.16641 C 1037.8348 530.19641 1038.0977 531.43711 1038.0977 532.88711 C 1038.0977 534.33711 1037.8478 535.5647 1037.3496 536.5707 C 1036.8506 537.5767 1036.1252 538.36619 1035.1699 538.93789 C 1034.3589 539.42099 1033.5035 539.68086 1032.6055 539.73086 C 1031.7075 539.77026 1030.6049 539.79336 1029.2969 539.79336 L 1029.1836 539.79336 L 1029.1836 526.00234 z M 1262.2832 526.78164 C 1259.3332 526.78164 1257.0375 527.58942 1255.3965 529.20742 C 1253.7554 530.82542 1252.9355 532.99052 1252.9355 535.70352 C 1252.9355 538.47552 1253.8162 540.61252 1255.5762 542.11172 C 1257.3358 543.61061 1259.8689 544.35945 1263.1699 544.35977 C 1264.0729 544.3597 1264.8377 544.32004 1265.4648 544.23281 C 1266.0928 544.14921 1266.7032 544.03346 1267.2949 543.88516 C 1267.9382 543.73676 1268.4457 543.59291 1268.8145 543.44961 C 1269.1832 543.30621 1269.5899 543.15091 1270.0371 542.98281 L 1270.0371 538.70742 L 1269.4609 538.70742 C 1269.2219 538.87442 1268.9137 539.06689 1268.5352 539.28359 C 1268.1566 539.50019 1267.7442 539.70272 1267.2969 539.89102 C 1266.7879 540.10892 1266.2281 540.28321 1265.6152 540.41641 C 1265.0032 540.55331 1264.3801 540.61563 1263.7461 540.61563 C 1263.0091 540.61563 1262.3277 540.54961 1261.7051 540.41641 C 1261.0821 540.28321 1260.5374 540.06165 1260.0703 539.75625 C 1259.5924 539.45035 1259.2075 539.03998 1258.916 538.52188 C 1258.6247 538.00387 1258.4523 537.35993 1258.4023 536.59023 L 1270.3516 536.59023 L 1270.3516 534.72695 C 1270.3516 532.17195 1269.6762 530.20928 1268.3262 528.83828 C 1266.9762 527.46628 1264.9622 526.78164 1262.2832 526.78164 z M 1006.6621 526.79727 C 1003.7121 526.79727 1001.4164 527.607 999.77539 529.225 C 998.13509 530.843 997.31445 533.00809 997.31445 535.72109 C 997.31445 538.49309 998.19508 540.62834 999.95508 542.12734 C 1001.7151 543.62654 1004.2468 544.37734 1007.5488 544.37734 L 1007.5469 544.37539 C 1008.4509 544.37539 1009.2167 544.33769 1009.8457 544.25039 C 1010.4737 544.16679 1011.0842 544.05093 1011.6758 543.90273 C 1012.3191 543.75443 1012.8245 543.60853 1013.1934 543.46523 C 1013.5621 543.32223 1013.9688 543.16849 1014.416 543.00039 L 1014.416 538.72305 L 1013.8398 538.72305 C 1013.6019 538.89005 1013.2929 539.08447 1012.9141 539.30117 C 1012.5354 539.51777 1012.1231 539.71834 1011.6758 539.90664 C 1011.1668 540.12454 1010.6069 540.29883 1009.9941 540.43203 C 1009.3821 540.56893 1008.7589 540.63125 1008.125 540.63125 C 1007.387 540.63125 1006.7067 540.56523 1006.084 540.43203 C 1005.461 540.29883 1004.9144 540.07923 1004.4473 539.77383 C 1003.9693 539.46793 1003.5851 539.05755 1003.2949 538.53945 C 1003.0037 538.02145 1002.8312 537.37741 1002.7812 536.60781 L 1014.7305 536.60781 L 1014.7305 534.74258 C 1014.7305 532.18758 1014.0551 530.22491 1012.7051 528.85391 C 1011.3551 527.48191 1009.3411 526.79727 1006.6621 526.79727 z M 1186.0215 526.82852 C 1184.7965 526.82852 1183.581 526.92965 1182.377 527.13125 C 1181.172 527.33445 1180.3003 527.50834 1179.7598 527.65664 L 1179.7598 531.66641 L 1180.2266 531.66641 C 1181.0476 531.32141 1181.8882 531.03664 1182.75 530.81484 C 1183.612 530.59444 1184.366 530.48281 1185.0098 530.48281 C 1186.4328 530.48281 1187.4999 530.6583 1188.2109 531.0082 C 1188.9215 531.3582 1189.2773 531.99069 1189.2773 532.90859 L 1189.2773 532.99648 C 1187.6993 533.09468 1186.2245 533.23235 1184.8535 533.41055 C 1183.4825 533.58735 1182.3028 533.90461 1181.3164 534.35781 C 1180.3404 534.80181 1179.5936 535.4028 1179.0742 536.1625 C 1178.5547 536.9225 1178.2969 537.91973 1178.2969 539.15273 C 1178.2969 540.65273 1178.8071 541.89485 1179.8301 542.88125 C 1180.8531 543.86805 1182.1385 544.36172 1183.6855 544.36172 C 1184.5175 544.36172 1185.1629 544.30653 1185.625 544.18203 C 1186.0872 544.06393 1186.5626 543.89135 1187.0508 543.66445 C 1187.5491 543.42785 1187.9454 543.19197 1188.2422 542.95547 C 1188.5386 542.71757 1188.8724 542.45089 1189.2461 542.15469 L 1189.2461 543.91445 L 1194.668 543.91445 L 1194.668 532.61367 C 1194.668 530.65967 1193.9795 529.20775 1192.6035 528.25625 C 1191.2275 527.30405 1189.0335 526.82852 1186.0215 526.82852 z M 1118.8359 526.84414 C 1117.8489 526.84414 1116.9615 527.04696 1116.1719 527.45156 C 1115.3819 527.85656 1114.5395 528.41721 1113.6465 529.13711 L 1113.6465 527.30313 L 1108.1953 527.30313 L 1108.1953 543.92227 L 1113.6465 543.92227 L 1113.6465 532.14297 C 1114.0517 531.87787 1114.4664 531.64426 1114.8926 531.44766 C 1115.3176 531.25076 1115.7539 531.15078 1116.2012 531.15078 C 1116.7832 531.15078 1117.2371 531.23192 1117.5645 531.39492 C 1117.8922 531.55812 1118.1333 531.81727 1118.2891 532.17227 C 1118.4447 532.52627 1118.5392 532.98838 1118.5762 533.55508 C 1118.6142 534.12208 1118.627 534.81003 1118.627 535.61953 L 1118.627 543.92031 L 1124.1113 543.92031 L 1124.1113 532.14102 C 1124.5886 531.82612 1125.031 531.58169 1125.4355 531.40859 C 1125.8408 531.23689 1126.2499 531.14883 1126.666 531.14883 C 1127.2579 531.14883 1127.7174 531.22997 1128.0449 531.39297 C 1128.3725 531.55617 1128.6139 531.81531 1128.7695 532.17031 C 1128.9251 532.52531 1129.0138 532.98557 1129.0508 533.54727 C 1129.0888 534.11027 1129.1016 534.80123 1129.1016 535.61953 L 1129.1016 543.92031 L 1134.5859 543.92227 L 1134.5859 533.10195 C 1134.5859 531.91795 1134.4631 530.9598 1134.2188 530.225 C 1133.9751 529.491 1133.6093 528.85771 1133.1211 528.32461 C 1132.6741 527.83111 1132.1303 527.45988 1131.4863 527.21328 C 1130.8423 526.96768 1130.1141 526.84414 1129.3047 526.84414 C 1128.3497 526.84414 1127.4057 527.09203 1126.4766 527.59023 C 1125.5466 528.08823 1124.5588 528.80111 1123.5098 529.72891 C 1123.0838 528.77191 1122.4658 528.05195 1121.6562 527.56875 C 1120.8453 527.08545 1119.9059 526.84414 1118.8359 526.84414 z M 954.8418 526.85977 C 953.8548 526.85977 952.96733 527.06219 952.17773 527.46719 C 951.38773 527.87219 950.54534 528.43489 949.65234 529.15469 L 949.65234 527.31875 L 944.20117 527.31875 L 944.20117 543.93789 L 949.65234 543.93789 L 949.65234 532.15859 C 950.05644 531.89339 950.47234 531.66028 950.89844 531.46328 C 951.32344 531.26678 951.76113 531.16836 952.20703 531.16836 C 952.78913 531.16836 953.24291 531.2495 953.57031 531.4125 C 953.89791 531.5757 954.13922 531.83484 954.29492 532.18984 C 954.45062 532.54384 954.54533 533.00596 954.58203 533.57266 C 954.61843 534.13966 954.63281 534.82556 954.63281 535.63516 L 954.63281 543.93789 L 960.11523 543.93789 L 960.11523 532.15664 C 960.59233 531.84174 961.03445 531.59732 961.43945 531.42422 C 961.84365 531.25252 962.25392 531.16641 962.66992 531.16641 C 963.26182 531.16641 963.72143 531.24755 964.04883 531.41055 C 964.37653 531.57365 964.61774 531.83289 964.77344 532.18789 C 964.92914 532.54289 965.03169 533.00119 965.05469 533.56289 C 965.09159 534.12589 965.10352 534.81686 965.10352 535.63516 L 965.10352 543.93594 L 970.5918 543.93789 L 970.5918 533.11758 C 970.5918 531.93358 970.46841 530.97542 970.22461 530.24063 C 969.98101 529.50663 969.61515 528.87333 969.12695 528.34023 C 968.67995 527.84673 968.13413 527.47551 967.49023 527.22891 C 966.84623 526.98361 966.12005 526.85977 965.31055 526.85977 C 964.35555 526.85977 963.41152 527.10961 962.48242 527.60781 C 961.55242 528.10581 960.56462 528.81673 959.51562 529.74453 C 959.08962 528.78753 958.47096 528.06758 957.66016 527.58438 C 956.85016 527.10107 955.9118 526.85977 954.8418 526.85977 z M 983.50195 526.86367 C 982.41095 526.86367 981.44984 527.06414 980.61914 527.46914 C 979.78814 527.87414 978.97343 528.40173 978.17383 529.05313 L 978.17383 527.32266 L 972.7207 527.32266 L 972.7207 550.03164 L 978.17383 550.03164 L 978.17383 543.10781 C 978.90083 543.50261 979.58472 543.79256 980.22852 543.98086 C 980.87152 544.16266 981.63091 544.26211 982.50391 544.26211 C 984.58091 544.26211 986.32809 543.4487 987.74609 541.8207 C 989.16349 540.1927 989.871 538.05283 989.87109 535.39883 L 989.87305 535.40078 C 989.87305 532.76678 989.31803 530.68564 988.20703 529.15664 C 987.09503 527.62834 985.52695 526.86367 983.50195 526.86367 z M 1281.8164 527.24453 C 1281.3484 527.24453 1280.8523 527.32567 1280.3281 527.48867 C 1279.8033 527.65077 1279.3442 527.84586 1278.9492 528.07266 C 1278.5865 528.27066 1278.1831 528.53543 1277.7422 528.86563 C 1277.3003 529.19563 1276.9558 529.46924 1276.707 529.68594 L 1276.707 527.30313 L 1271.2559 527.30313 L 1271.2559 543.92422 L 1276.707 543.92422 L 1276.707 532.79336 C 1277.299 532.57526 1277.9094 532.38886 1278.5371 532.23086 C 1279.1651 532.06926 1279.7642 531.99453 1280.3359 531.99453 C 1280.8132 531.99453 1281.2496 532.00666 1281.6445 532.04336 C 1282.0394 532.07466 1282.3407 532.12471 1282.5488 532.19961 L 1283 532.19961 L 1283 527.30703 C 1282.8243 527.28043 1282.6264 527.2685 1282.4082 527.2582 C 1282.1905 527.25 1281.9934 527.24466 1281.8164 527.24453 z M 1235.6172 527.29336 L 1242.0352 543.51406 L 1239.3867 550.01016 L 1245.2441 550.01016 L 1254.0762 527.29922 L 1248.4688 527.29336 L 1245.0254 537.71328 L 1241.3496 527.29336 L 1235.6172 527.29336 z M 1171.8848 527.29531 L 1171.8848 543.91641 L 1177.3379 543.91641 L 1177.3379 527.29531 L 1171.8848 527.29531 z M 1045.2871 527.30703 L 1045.2871 543.92617 L 1050.7383 543.92617 L 1050.7383 527.30703 L 1045.2871 527.30703 z M 936.48242 527.3168 L 936.48242 543.93594 L 941.93359 543.93594 L 941.93359 527.3168 L 936.48242 527.3168 z M 1144.3672 530.11172 C 1145.4052 530.11172 1146.1767 530.39744 1146.6797 530.96914 C 1147.1829 531.54114 1147.4454 532.37414 1147.4824 533.46914 L 1140.8926 533.46914 C 1140.9548 532.43314 1141.2843 531.61566 1141.8809 531.01406 C 1142.4779 530.41226 1143.3082 530.11186 1144.3672 530.11172 z M 1261.8613 530.11172 C 1262.8993 530.11172 1263.6726 530.39744 1264.1758 530.96914 C 1264.6789 531.54114 1264.9406 532.37414 1264.9766 533.46914 L 1258.3887 533.46914 C 1258.4509 532.43314 1258.7803 531.61566 1259.377 531.01406 C 1259.974 530.41226 1260.8013 530.11186 1261.8613 530.11172 z M 1072.582 530.11953 C 1073.621 530.11953 1074.3921 530.40721 1074.8965 530.97891 C 1075.3995 531.55091 1075.6762 532.38391 1075.6992 533.47891 L 1069.1094 533.47891 C 1069.1717 532.44291 1069.5012 531.62543 1070.0977 531.02383 C 1070.6947 530.42203 1071.523 530.11968 1072.582 530.11953 z M 1006.2402 530.12734 C 1007.2782 530.12734 1008.0495 530.41307 1008.5527 530.98477 C 1009.0558 531.55677 1009.3325 532.39172 1009.3555 533.48672 L 1002.7656 533.48672 C 1002.8278 532.45072 1003.1581 531.63129 1003.7559 531.02969 C 1004.3529 530.42789 1005.1812 530.12749 1006.2402 530.12734 z M 1162.002 530.73281 C 1162.3145 530.73281 1162.6891 530.77051 1163.125 530.85781 C 1163.5623 530.94141 1163.915 531.04807 1164.1855 531.17617 L 1164.1855 539.32852 C 1163.7795 539.63372 1163.3338 539.87493 1162.8457 540.05313 C 1162.357 540.23222 1161.8748 540.3207 1161.3965 540.3207 C 1160.2225 540.3207 1159.3739 539.9548 1158.8496 539.225 C 1158.3251 538.495 1158.0625 537.31222 1158.0625 535.67422 C 1158.0625 534.11522 1158.3907 532.90169 1159.0508 532.03359 C 1159.7108 531.16649 1160.693 530.73281 1162.002 530.73281 z M 981.05273 530.88125 C 982.16473 530.88125 982.98351 531.24715 983.50781 531.97695 C 984.03221 532.70695 984.29492 533.88044 984.29492 535.49844 L 984.29297 535.49844 C 984.29297 537.15544 983.97007 538.39594 983.32617 539.21914 C 982.68217 540.04274 981.69619 540.45547 980.36719 540.45547 C 979.89019 540.45547 979.47651 540.43135 979.12891 540.38125 C 978.78151 540.33125 978.46208 540.2538 978.17188 540.1293 L 978.17188 531.76992 C 978.63907 531.47372 979.1124 531.25221 979.5957 531.10391 C 980.0788 530.95701 980.56453 530.88125 981.05273 530.88125 z M 1189.2461 536.11758 L 1189.2461 539.58047 C 1188.8415 539.95488 1188.3903 540.247 1187.8926 540.45352 C 1187.3952 540.66382 1186.906 540.76211 1186.4277 540.76211 C 1185.5667 540.76211 1184.9136 540.61816 1184.4727 540.32656 C 1184.0308 540.03556 1183.8105 539.50265 1183.8105 538.72305 C 1183.8105 538.19035 1183.9416 537.7632 1184.207 537.4418 C 1184.4716 537.1216 1184.8441 536.883 1185.3223 536.725 C 1185.8723 536.5367 1186.4322 536.41045 1187.0039 536.34805 C 1187.5749 536.28465 1188.3221 536.20488 1189.2461 536.11758 z M 1230.207 536.11758 L 1230.207 539.58047 C 1229.8023 539.95537 1229.3498 540.24682 1228.8516 540.45352 C 1228.3529 540.66382 1227.8668 540.76211 1227.3887 540.76211 C 1226.5277 540.76211 1225.8746 540.61816 1225.4336 540.32656 C 1224.9916 540.03556 1224.7715 539.50265 1224.7715 538.72305 C 1224.7715 538.19035 1224.9026 537.7632 1225.168 537.4418 C 1225.4316 537.1216 1225.8031 536.883 1226.2812 536.725 C 1226.8322 536.5367 1227.3932 536.41045 1227.9648 536.34805 C 1228.5358 536.28465 1229.2829 536.20488 1230.207 536.11758 z"/>
<path d="m1281 506.9h-149.8v-213.1h56.36v172.5h93.43zm-164.5-106.4c-2e-4 19.85-4.571 37.62-13.71 53.32-9.143 15.7-20.7 27.74-34.66 36.14-11.65 7.157-24.34 11.76-38.05 13.81-13.71 2.052-28.31 3.077-43.78 3.077h-70.22v-213.1h69.62c15.77 2.6e-4 30.54 0.954 44.3 2.863 13.76 1.909 26.67 6.537 38.73 13.88 14.77 8.97 26.42 21.07 34.96 36.29 8.539 15.22 12.81 33.14 12.81 53.75zm-57.87-0.4298c-1e-4 -14.03-2.537-26.03-7.61-36-5.074-9.972-12.88-17.77-23.43-23.4-7.635-4.008-15.65-6.202-24.04-6.584-8.389-0.3811-18.41-0.5729-30.06-0.5729h-1.055v133.4h1.055c12.66 1.4e-4 23.33-0.214 32.02-0.6439 8.69-0.4298 16.95-2.982 24.79-7.658 9.243-5.534 16.28-13.17 21.1-22.9 4.822-9.733 7.233-21.61 7.234-35.64zm-250.1 110.6c-17.18 0-32.27-1.574-45.28-4.723-13.01-3.149-25.09-7.062-36.24-11.74v-50.67h5.124c11.25 9.065 23.66 16.03 37.22 20.9 13.56 4.867 26.72 7.3 39.48 7.3 3.215 0 7.459-0.3338 12.73-1.001 5.274-0.6676 9.519-1.718 12.73-3.149 3.918-1.622 7.233-3.889 9.946-6.799 2.712-2.91 4.069-6.751 4.069-11.52-1.4e-4 -5.344-2.21-9.686-6.631-13.03-4.421-3.34-9.695-5.773-15.82-7.3-7.635-1.908-15.8-3.722-24.49-5.439-8.69-1.718-16.8-3.817-24.34-6.298-17.38-5.821-29.84-13.65-37.37-23.47-7.535-9.829-11.3-22.14-11.3-36.93 0-19.94 8.891-36.09 26.67-48.45 17.78-12.36 39.98-18.54 66.61-18.54 13.36 2.4e-4 26.65 1.288 39.86 3.865 13.21 2.577 25.04 6.06 35.49 10.45v48.67h-4.973c-8.339-6.775-18.51-12.5-30.52-17.18-12.01-4.676-24.34-7.014-37-7.014-4.923 1e-4 -9.343 0.3338-13.26 1.001-3.918 0.6688-8.037 1.956-12.36 3.865-3.516 1.527-6.555 3.793-9.117 6.799-2.562 3.006-3.843 6.37-3.843 10.09-1.4e-4 5.439 2.034 9.757 6.103 12.95 4.069 3.197 11.93 6.083 23.58 8.66 7.535 1.622 14.79 3.197 21.78 4.723 6.982 1.527 14.44 3.626 22.38 6.298 15.57 5.344 27.15 12.52 34.74 21.54 7.585 9.018 11.38 20.92 11.38 35.71-1e-4 21.18-8.766 38.22-26.3 51.1-17.53 12.88-41.22 19.32-71.05 19.32z"/>
<path d="m900.6 605.1c-1.389 0-2.513 0.9752-2.513 2.179 0 1.203 1.125 2.179 2.513 2.179 1.387 0 2.513-0.9765 2.513-2.179 0-1.203-1.126-2.179-2.513-2.179zm107.7 19.54c-2.169 0-3.927 1.524-3.927 3.407 0 1.881 1.758 3.405 3.927 3.405s3.927-1.524 3.927-3.405c0-1.883-1.758-3.407-3.927-3.407zm-55.89-7.379c-1.736 0-3.143 1.221-3.143 2.726 0 1.506 1.407 2.725 3.143 2.725 1.736 0 3.141-1.219 3.141-2.725 0-1.505-1.406-2.726-3.141-2.726zm117.1 9.57c-2.712 0-4.909 1.905-4.909 4.257 0 2.352 2.198 4.257 4.909 4.257 2.71 0 4.909-1.905 4.909-4.257 0-2.352-2.199-4.257-4.909-4.257zm63.21-3.286c-3.387 0-6.134 2.382-6.134 5.321 0 2.94 2.747 5.323 6.134 5.323 3.389 0 6.138-2.383 6.138-5.323 0-2.938-2.749-5.321-6.138-5.321zm63.35-10.82c-4.237 0-7.67 2.98-7.67 6.652 0 3.674 3.433 6.653 7.67 6.653 4.237 0 7.672-2.979 7.672-6.653 0-3.673-3.434-6.652-7.672-6.652zm63.39-19.8c-5.295 0-9.587 3.722-9.587 8.314 0 4.592 4.292 8.316 9.587 8.316 5.295 0 9.589-3.724 9.589-8.316 0-4.592-4.294-8.314-9.589-8.314zm60.7-26.35c-5.883 0-10.65 4.137-10.65 9.24 0 5.103 4.769 9.239 10.65 9.239 5.883 0 10.65-4.136 10.65-9.239 0-5.103-4.769-9.24-10.65-9.24zm55.33-37.88c-6.537 0-11.84 4.595-11.84 10.26 0 5.669 5.3 10.27 11.84 10.27 6.539 0 11.84-4.597 11.84-10.27 0-5.669-5.298-10.26-11.84-10.26zm45.63-53.3c-8.499 0-15.39 5.976-15.39 13.35 0 7.37 6.889 13.35 15.39 13.35s15.39-5.975 15.39-13.35c0-7.369-6.889-13.35-15.39-13.35zm19.6-55.29c-6.537 0-11.84 4.595-11.84 10.27 0 5.669 5.298 10.26 11.84 10.26s11.84-4.595 11.84-10.26c0-5.67-5.298-10.27-11.84-10.27zm-6.608-34.51c4.671 0 8.457-3.281 8.457-7.332 0-4.049-3.785-7.332-8.457-7.332-4.668 0-8.453 3.283-8.453 7.332 0 4.051 3.785 7.332 8.453 7.332zm-20.65-39.88c3.337 0 6.038-2.346 6.038-5.238 0-2.892-2.702-5.236-6.038-5.236-3.335 0-6.04 2.344-6.04 5.236 0 2.892 2.705 5.238 6.04 5.238zm-22.7-33.44c-2.223 0-4.024 1.564-4.024 3.493 0 1.927 1.802 3.491 4.024 3.491 2.224 0 4.028-1.564 4.028-3.491 0-1.929-1.803-3.493-4.028-3.493zm-24.16-13.7c1.483 0 2.685-1.042 2.685-2.328 0-1.285-1.202-2.328-2.685-2.328-1.483 0-2.683 1.042-2.683 2.328 0 1.285 1.2 2.328 2.683 2.328"/>
</g>
</svg>