<svg version="1.1" xmlns="http://www.w3.org/2000/svg" xmlns:xlink="http://www.w3.org/1999/xlink" viewBox="0,0,81.5,59.29033">
<g transform="translate(-206,-130.50077)">
<g fill="white">
<path d="M 254.02148 130.90116 C 253.90698 130.90507 253.79297 130.93827 253.69922 131.00077 L 245.09961 139.00077 C 242.79961 138.60077 240.39961 138.40038 237.59961 138.60038 C 232.89961 138.80038 228.40039 140.50077 228.40039 140.50077 L 216.30078 132.60038 C 215.90078 132.40038 215.4 132.70038 215.5 133.10038 L 217.59961 150.99491 C 217.0463 151.66135 207.38238 164.41459 214.09961 175.19999 C 221.19961 186.59999 236.29961 191.70077 255.09961 188.00077 C 273.89961 184.30077 278.29961 173.4996 277.09961 167.7996 C 275.89961 162.0996 268.80078 160.00077 268.80078 160.00077 C 268.80078 160.00077 268.7 155.50077 265.5 150.00077 C 263.6 146.70077 257.19922 142.00077 257.19922 142.00077 L 254.59961 131.2996 C 254.53086 131.0246 254.27339 130.89257 254.02148 130.90116 z M 255.39844 145.51639 C 258.0375 145.54452 261.22539 147.62577 263.40039 151.00077 C 265.44483 154.17318 266.09799 157.64334 265.32422 160.04569 C 265.43038 160.04352 265.53732 160.04263 265.64648 160.04374 C 266.4959 160.05233 267.4375 160.16171 268.5 160.39921 C 268.5 160.39921 275.39961 162.19921 276.59961 167.89921 C 277.79961 173.59921 273.00039 183.90077 254.40039 187.50077 C 230.20039 192.50077 218.70039 178.10077 225.40039 167.50077 C 226.62291 165.54838 228.00582 164.25548 229.5 163.44218 C 228.97236 162.90226 228.46881 162.28796 228 161.60038 C 224.9 157.20038 224.70078 151.4996 227.80078 149.2996 C 228.57578 148.7246 229.44961 148.44452 230.37305 148.41483 C 233.14336 148.32577 236.34961 150.4996 238.59961 153.7996 C 240.74098 156.94028 241.25156 160.59091 240.38672 163.11405 C 242.72778 163.68598 245.08213 164.41592 247.33398 164.87772 C 247.12266 164.57056 247 164.27347 247 164.00077 C 246.9 162.80077 249.59961 162.69999 251.59961 162.69999 C 253.69961 162.69999 255.9 162.90038 256 163.60038 C 256.01458 163.80448 255.99605 164.03892 255.94727 164.28983 C 257.03074 163.78524 257.96305 163.15651 258.88086 162.53788 C 256.87669 161.7361 254.80755 160.01288 253.19922 157.60038 C 250.29922 153.10038 250.2 147.99999 253 146.19999 C 253.7 145.72499 254.51875 145.50702 255.39844 145.51639 z "/>
<path d="M263,156.7c0,1.1 -0.8,2 -1.8,2c-1,0 -1.8,-0.9 -1.8,-2c0,-1.1 0.8,-2 1.8,-2c1,0 1.8,0.9 1.8,2"/>
<path d="M238,159.6c0,1.1 -0.8,2 -1.8,2c-1,0 -1.8,-0.9 -1.8,-2c0,-1.1 0.8,-2 1.8,-2c1,0.1 1.8,0.9 1.8,2"/>
</g>
<g fill="none" stroke="white" stroke-width="1.2" stroke-linecap="round" stroke-linejoin="round">
<path d="M237,171.1c0,-0.4 0.4,-0.7 0.8,-0.6c1.9,0.7 7.3,2.3 13.3,2.7c5.4,0.3 8.6,0 10.1,-0.3c0.5,-0.1 0.9,0.4 0.7,0.9c-0.9,2.7 -4.7,10.2 -15.2,9.6c-9.1,-1 -10,-7.4 -9.7,-12.3z"/>
<path d="m 286.9,161.5 c -4.7,3.8 -11.9,3.9 -11.9,3.9"/>
<path d="m 285.6,172.7 c -6.3,0.5 -10.2,-1.4 -10.2,-1.4"/>
<path d="m 251.6,162.7 c 2.1,0 4.3,0.2 4.4,0.9 0.1,1.4 -1.4,4.2 -3,4.3 -1.8,0.2 -6,-2.3 -6,-3.9 -0.1,-1.2 2.6,-1.3 4.6,-1.3 z"/>
<path d="m 206.6,161.2 c 0,0 8.6,2.8 12.1,5.9"/>
<path d="m 238.6,153.8 c 3,4.4 2.8,9.8 0.1,11.7 -3.3,1.9 -7.7,0.5 -10.7,-3.9 -3.1,-4.4 -3.3,-10.1 -0.2,-12.3 3.1,-2.3 7.8,0.1 10.8,4.5 z"/>
<path d="m 263.4,151 c 2.9,4.5 3,9.6 0.2,11.4 -2.8,1.8 -7.4,-0.3 -10.4,-4.8 -2.9,-4.5 -3,-9.6 -0.2,-11.4 2.8,-1.9 7.5,0.3 10.4,4.8 z"/>
<path d="m 219,170.6 c -4.3,1.7 -11.7,0.6 -11.7,0.6"/>
</g>
</g>
</svg>