<?xml version="1.0" encoding="UTF-8"?>
<svg xmlns="http://www.w3.org/2000/svg" xmlns:xlink="http://www.w3.org/1999/xlink" viewBox="0 0 2988 2988">
<path fill="white" d="M 2063.820312 2018.0625 C 2082.839844 1944.128906 2097.320312 1868.300781 2106.871094 1790.648438 C 2108.101562 1780.570312 2109.261719 1770.460938 2110.328125 1760.320312 L 2237.589844 1760.320312 C 2282.75 1760.320312 2319.699219 1722.71875 2319.699219 1676.75 L 2319.699219 1550.621094 L 2481.710938 1551.148438 C 2470.71875 1721.960938 2417.410156 1881.191406 2332.378906 2018.0625 Z M 1919.890625 2389.585938 C 1959.609375 2314.925781 1993.53125 2237.425781 2021.578125 2157.375 L 2228.140625 2157.378906 C 2141.808594 2253.945312 2037.160156 2333.230469 1919.890625 2389.585938 Z M 1729.671875 2457.585938 C 1676.988281 2470.378906 1622.691406 2478.796875 1567.109375 2482.511719 L 1567.109375 2157.375 L 1876.121094 2157.378906 C 1835.96875 2260.464844 1784.820312 2359.007812 1722.550781 2452.6875 Z M 1973.519531 1760.320312 C 1963.300781 1848.890625 1946.390625 1934.839844 1922.820312 2018.0625 L 1567.109375 2018.066406 L 1567.109375 1760.320312 Z M 1495.28125 1447.71875 L 1426.789062 1670.320312 L 1384.058594 1670.328125 L 1382.890625 1674.121094 L 1381.960938 1670.320312 L 1343.140625 1670.328125 L 1269.359375 1403.578125 L 1195.570312 1670.320312 L 1156.75 1670.328125 L 1155.820312 1674.121094 L 1154.640625 1670.320312 L 1111.921875 1670.328125 L 1043.429688 1447.71875 L 974.933594 1670.320312 L 932.207031 1670.328125 L 931.035156 1674.121094 L 930.097656 1670.320312 L 891.277344 1670.328125 L 778.398438 1262.261719 L 886.894531 1262.261719 L 937.273438 1468.679688 L 1001.21875 1262.261719 L 1043.148438 1262.261719 L 1043.429688 1261.339844 L 1043.71875 1262.261719 L 1085.640625 1262.261719 L 1149.570312 1468.679688 L 1199.960938 1262.261719 L 1338.738281 1262.261719 L 1389.128906 1468.679688 L 1453.070312 1262.261719 L 1495 1262.261719 L 1495.28125 1261.339844 L 1495.578125 1262.261719 L 1537.5 1262.261719 L 1601.429688 1468.679688 L 1651.820312 1262.261719 L 1790.601562 1262.261719 L 1840.988281 1468.679688 L 1904.929688 1262.261719 L 1946.851562 1262.261719 L 1947.140625 1261.339844 L 1947.429688 1262.261719 L 1989.351562 1262.261719 L 2053.289062 1468.679688 L 2103.691406 1262.261719 L 2212.171875 1262.261719 L 2099.289062 1670.320312 L 2060.46875 1670.328125 L 2059.539062 1674.121094 L 2058.359375 1670.320312 L 2015.640625 1670.328125 L 1947.140625 1447.71875 L 1878.648438 1670.320312 L 1835.921875 1670.328125 L 1834.75 1674.121094 L 1833.808594 1670.320312 L 1795 1670.328125 L 1721.210938 1403.578125 L 1647.429688 1670.320312 L 1608.609375 1670.328125 L 1607.679688 1674.121094 L 1606.5 1670.320312 L 1563.78125 1670.328125 Z M 1430.289062 2018.0625 L 1055.800781 2018.066406 C 1032.570312 1934.808594 1016.269531 1848.859375 1006.828125 1760.320312 L 1430.289062 1760.320312 Z M 1430.289062 2482.050781 C 1370.558594 2477.652344 1312.289062 2467.796875 1255.960938 2452.925781 C 1193.308594 2359.074219 1141.980469 2260.507812 1102.058594 2157.375 L 1430.289062 2157.378906 Z M 776.109375 2157.375 L 951.574219 2157.378906 C 976.804688 2229.71875 1007.078125 2299.953125 1042.109375 2368.015625 C 941.898438 2313.664062 851.945312 2242.1875 776.109375 2157.375 Z M 671.871094 2018.0625 C 585.746094 1879.460938 532.179688 1717.941406 522.140625 1544.679688 L 664.039062 1545.140625 L 664.039062 1676.75 C 664.039062 1722.71875 700.972656 1760.320312 746.128906 1760.320312 L 864.847656 1760.320312 C 866.535156 1777.46875 868.394531 1794.558594 870.570312 1811.539062 C 879.550781 1881.890625 892.691406 1950.75 909.769531 2018.0625 Z M 714.140625 889.628906 L 962.703125 889.628906 C 940.152344 963.570312 918.914062 1044.558594 901.363281 1131.171875 C 899.324219 1141.230469 897.382812 1151.269531 895.484375 1161.289062 L 746.128906 1161.300781 C 700.972656 1161.289062 664.039062 1198.910156 664.039062 1244.871094 L 664.039062 1405.828125 L 523.496094 1405.371094 C 538.476562 1213.121094 607.125 1036.019531 714.140625 889.628906 Z M 1076.410156 584.570312 C 1055.890625 630.621094 1032.800781 686.371094 1009.390625 750.320312 L 837.382812 750.320312 C 908.257812 683.808594 988.703125 627.730469 1076.410156 584.570312 Z M 1430.289062 889.628906 L 1430.289062 1161.289062 L 1040.199219 1161.300781 C 1060.070312 1062.601562 1085.25 971.089844 1111.660156 889.628906 Z M 1268.210938 514.371094 C 1320.730469 501.25 1374.859375 492.410156 1430.289062 488.320312 L 1430.289062 750.320312 L 1161.269531 750.320312 C 1209.878906 625.210938 1254.050781 540.519531 1268.210938 514.371094 Z M 1567.109375 889.628906 L 1881.21875 889.628906 C 1904.371094 966.058594 1926.269531 1050.769531 1943.820312 1141.550781 C 1945.089844 1148.148438 1946.261719 1154.710938 1947.480469 1161.289062 L 1567.109375 1161.300781 Z M 1567.109375 487.871094 C 1624.390625 491.699219 1680.339844 500.550781 1734.539062 514 C 1754.96875 555.089844 1793.769531 637.871094 1834.75 750.320312 L 1567.109375 750.320312 Z M 2166.871094 750.320312 L 1980.5 750.320312 C 1957.890625 684.429688 1935.320312 626.640625 1915.011719 578.441406 C 2007.691406 622.378906 2092.558594 680.578125 2166.871094 750.320312 Z M 2290.109375 889.628906 C 2398.328125 1037.671875 2467.289062 1217.101562 2481.238281 1411.839844 L 2319.699219 1411.308594 L 2319.699219 1244.871094 C 2319.699219 1198.910156 2282.75 1161.289062 2237.589844 1161.289062 L 2086.570312 1161.300781 C 2083.609375 1144.320312 2080.550781 1127.328125 2077.21875 1110.28125 C 2061.890625 1031.730469 2043.640625 957.871094 2024.191406 889.628906 Z M 1502.128906 346.308594 C 885.316406 346.308594 383.527344 857.210938 383.527344 1485.179688 C 383.527344 2113.167969 885.316406 2624.078125 1502.128906 2624.078125 C 2118.921875 2624.078125 2620.71875 2113.167969 2620.71875 1485.179688 C 2620.71875 857.210938 2118.921875 346.308594 1502.128906 346.308594 "/>
</svg>